<?xml version="1.0" encoding="UTF-8" standalone="no"?>
<!-- Created with Inkscape (http://www.inkscape.org/) -->

<svg
   xmlns:dc="http://purl.org/dc/elements/1.1/"
   xmlns:cc="http://creativecommons.org/ns#"
   xmlns:rdf="http://www.w3.org/1999/02/22-rdf-syntax-ns#"
   xmlns:svg="http://www.w3.org/2000/svg"
   xmlns="http://www.w3.org/2000/svg"
   xmlns:sodipodi="http://sodipodi.sourceforge.net/DTD/sodipodi-0.dtd"
   xmlns:inkscape="http://www.inkscape.org/namespaces/inkscape"
   width="298.19598"
   height="81.070084"
   id="svg3032"
   version="1.1"
   inkscape:version="0.48.5 r10040"
   sodipodi:docname="logo.svg">
  <defs
     id="defs3034" />
  <sodipodi:namedview
     id="base"
     pagecolor="#ffffff"
     bordercolor="#666666"
     borderopacity="1.0"
     inkscape:pageopacity="0.0"
     inkscape:pageshadow="2"
     inkscape:zoom="2.8"
     inkscape:cx="160.87058"
     inkscape:cy="43.819619"
     inkscape:document-units="px"
     inkscape:current-layer="layer1"
     showgrid="false"
     fit-margin-top="0"
     fit-margin-left="0"
     fit-margin-right="0"
     fit-margin-bottom="0"
     inkscape:window-width="1432"
     inkscape:window-height="821"
     inkscape:window-x="90"
     inkscape:window-y="124"
     inkscape:window-maximized="0" />
  <metadata
     id="metadata3037">
    <rdf:RDF>
      <cc:Work
         rdf:about="">
        <dc:format>image/svg+xml</dc:format>
        <dc:type
           rdf:resource="http://purl.org/dc/dcmitype/StillImage" />
        <dc:title />
      </cc:Work>
    </rdf:RDF>
  </metadata>
  <g
     inkscape:label="Layer 1"
     inkscape:groupmode="layer"
     id="layer1"
     transform="translate(-255.72344,-473.71962)">
    <g
       id="g2999"
       transform="translate(6.3832569,0)">
      <path
         style="fill:#000000;fill-opacity:1"
         d="m 380.27617,511.70316 c -3.85086,-0.0686 -7.95084,3.70191 -9.77095,8.95048 -3.51327,10.12197 -13.5749,13.82352 -13.5749,13.82352 7.16186,10.02492 13.64248,11.8363 17.95069,11.43673 4.31047,-0.40205 15.92198,-4.40363 13.50032,-22.20217 -0.12595,-0.92549 -0.2726,-1.77893 -0.44753,-2.58569 l 3.5802,-2.88405 -5.09681,-1.74037 c -1.60102,-3.31111 -3.83051,-4.7573 -6.14102,-4.79845 z m 1.61606,3.18239 c 0.53723,-0.0685 1.03716,0.55282 1.11881,1.3923 0.0796,0.83967 -0.28534,1.56766 -0.82047,1.64092 -0.53706,0.0708 -1.03926,-0.55395 -1.11881,-1.3923 -0.0816,-0.83967 0.2834,-1.56766 0.82047,-1.64092 z m -6.16589,12.25719 c 2.68974,-0.0309 4.99735,0.52211 4.99735,0.52211 -3.65942,17.30288 -14.72195,12.75251 -13.35114,4.92276 0.77117,-4.40476 4.89554,-5.40516 8.35379,-5.44487 z"
         id="path201-1"
         inkscape:connector-curvature="0" />
      <path
         style="fill:#000000"
         inkscape:connector-curvature="0"
         id="path205-6"
         d="m 386.41196,516.48955 c 0.61015,1.26208 1.12863,2.8012 1.52747,4.64057 l 3.58457,-2.87921 -5.11204,-1.76136 z" />
      <path
         inkscape:connector-curvature="0"
         id="path3931-1"
         d="m 374.58032,553.54962 0,-12.13332"
         style="fill:none;stroke:#000000;stroke-width:2.48017192;stroke-linecap:round;stroke-linejoin:miter;stroke-miterlimit:4;stroke-opacity:1;stroke-dasharray:none" />
      <path
         style="fill:#000000;fill-opacity:1"
         d="m 416.62504,511.70316 c -2.31051,0.0411 -4.54,1.48734 -6.14103,4.79845 l -5.12166,1.74037 3.60505,2.88405 c -0.17492,0.80676 -0.34644,1.6602 -0.47238,2.58569 -2.42167,17.79854 9.21471,21.80012 13.52518,22.20217 4.3082,0.39957 10.76397,-1.41181 17.92583,-11.43673 0,0 -10.06164,-3.70155 -13.5749,-13.82352 -1.82012,-5.24857 -5.89523,-9.01906 -9.74609,-8.95048 z m -1.81496,3.18239 c 0.0652,-0.0121 0.13174,-0.009 0.1989,0 0.53707,0.0733 0.90211,0.80125 0.82046,1.64092 -0.0796,0.83835 -0.58174,1.46309 -1.11881,1.3923 -0.53513,-0.0733 -0.9,-0.80125 -0.82046,-1.64092 0.0714,-0.73455 0.46348,-1.30784 0.91991,-1.3923 z m 6.33993,12.25719 c 3.45824,0.0397 7.58261,1.04011 8.35379,5.44487 1.3708,7.82975 -9.66686,12.38012 -13.32628,-4.92276 0,0 2.28274,-0.553 4.97249,-0.52211 z"
         id="path201-2-6"
         inkscape:connector-curvature="0" />
      <path
         style="fill:#000000"
         inkscape:connector-curvature="0"
         id="path205-7-0"
         d="m 410.48415,516.48955 c -0.61015,1.26208 -1.12863,2.8012 -1.52747,4.64057 l -3.58457,-2.87921 5.11204,-1.76136 z" />
      <path
         inkscape:connector-curvature="0"
         id="path3931-3-5"
         d="m 422.31579,553.54962 0,-12.13332"
         style="fill:none;stroke:#000000;stroke-width:2.48017192;stroke-linecap:round;stroke-linejoin:miter;stroke-miterlimit:4;stroke-opacity:1;stroke-dasharray:none" />
    </g>
    <text
       xml:space="preserve"
       style="font-size:50.00076675px;font-style:normal;font-variant:normal;font-weight:normal;font-stretch:normal;line-height:125%;letter-spacing:0px;word-spacing:0px;fill:#000000;fill-opacity:1;stroke:none;font-family:Montez;-inkscape-font-specification:Montez"
       x="255.04843"
       y="491.06989"
       id="text3392"
       sodipodi:linespacing="125%"><tspan
         sodipodi:role="line"
         id="tspan3394"
         x="255.04843"
         y="491.06989"
         style="font-size:25.00038338px;font-style:normal;font-variant:normal;font-weight:normal;font-stretch:normal;font-family:Cantarell;-inkscape-font-specification:Cantarell">www.join<tspan
   style="font-weight:bold;-inkscape-font-specification:Cantarell Bold"
   id="tspan3404">thelove</tspan>birds.com</tspan></text>
  </g>
</svg>
